<svg width="1000.000" height="1050.000" xmlns="http://www.w3.org/2000/svg">
<g>
<title>Layer 1</title>
<rect height="1000.000" width="1000.000" x="0.000" y="0.000" stroke-width="0" stroke="#000000" fill-opacity="0.5" fill="#000000"/>
<circle r="2.5" cx="0.337" cy="275.487" stroke-width="5" stroke="#000000" fill="#ff0000"/>
<text x="2.837" y="277.987" fill="red"> 0 </text><circle r="2.5" cx="20.289" cy="374.169" stroke-width="5" stroke="#000000" fill="#ff0000"/>
<text x="22.789" y="376.669" fill="red"> 1 </text><circle r="2.5" cx="519.336" cy="845.347" stroke-width="5" stroke="#000000" fill="#ff0000"/>
<text x="521.836" y="847.847" fill="red"> 2 </text><circle r="2.5" cx="724.637" cy="970.126" stroke-width="5" stroke="#000000" fill="#ff0000"/>
<text x="727.137" y="972.626" fill="red"> 3 </text><circle r="2.5" cx="943.592" cy="152.687" stroke-width="5" stroke="#000000" fill="#ff0000"/>
<text x="946.092" y="155.187" fill="red"> 4 </text><circle r="2.5" cx="343.217" cy="405.849" stroke-width="5" stroke="#000000" fill="#ff0000"/>
<text x="345.717" y="408.349" fill="red"> 5 </text><circle r="2.5" cx="733.445" cy="143.500" stroke-width="5" stroke="#000000" fill="#ff0000"/>
<text x="735.945" y="146.000" fill="red"> 6 </text><circle r="2.5" cx="878.782" cy="675.688" stroke-width="5" stroke="#000000" fill="#ff0000"/>
<text x="881.282" y="678.188" fill="red"> 7 </text><circle r="2.5" cx="149.509" cy="926.268" stroke-width="5" stroke="#000000" fill="#ff0000"/>
<text x="152.009" y="928.768" fill="red"> 8 </text><circle r="2.5" cx="893.176" cy="499.170" stroke-width="5" stroke="#000000" fill="#ff0000"/>
<text x="895.676" y="501.670" fill="red"> 9 </text><circle r="2.5" cx="456.535" cy="390.762" stroke-width="5" stroke="#000000" fill="#ff0000"/>
<text x="459.035" y="393.262" fill="red"> 10 </text><circle r="2.5" cx="492.465" cy="794.981" stroke-width="5" stroke="#000000" fill="#ff0000"/>
<text x="494.965" y="797.481" fill="red"> 11 </text><circle r="2.5" cx="523.014" cy="422.997" stroke-width="5" stroke="#000000" fill="#ff0000"/>
<text x="525.514" y="425.497" fill="red"> 12 </text><circle r="2.5" cx="470.694" cy="869.810" stroke-width="5" stroke="#000000" fill="#ff0000"/>
<text x="473.194" y="872.310" fill="red"> 13 </text><circle r="2.5" cx="602.668" cy="410.392" stroke-width="5" stroke="#000000" fill="#ff0000"/>
<text x="605.168" y="412.892" fill="red"> 14 </text><circle r="2.5" cx="43.654" cy="219.669" stroke-width="5" stroke="#000000" fill="#ff0000"/>
<text x="46.154" y="222.169" fill="red"> 15 </text><circle r="2.5" cx="626.851" cy="723.394" stroke-width="5" stroke="#000000" fill="#ff0000"/>
<text x="629.351" y="725.894" fill="red"> 16 </text><circle r="2.5" cx="931.446" cy="846.768" stroke-width="5" stroke="#000000" fill="#ff0000"/>
<text x="933.946" y="849.268" fill="red"> 17 </text><circle r="2.5" cx="337.121" cy="164.092" stroke-width="5" stroke="#000000" fill="#ff0000"/>
<text x="339.621" y="166.592" fill="red"> 18 </text><circle r="2.5" cx="886.110" cy="404.449" stroke-width="5" stroke="#000000" fill="#ff0000"/>
<text x="888.610" y="406.949" fill="red"> 19 </text><line x1="931.446" y1="846.768" x2="943.592" y2="152.687" stroke="#ff0000" stroke-width="0.5" fill-opacity="1.0" fill="none"/><line x1="149.509" y1="926.268" x2="724.637" y2="970.126" stroke="#ff0000" stroke-width="0.5" fill-opacity="1.0" fill="none"/><line x1="149.509" y1="926.268" x2="20.289" y2="374.169" stroke="#ff0000" stroke-width="0.5" fill-opacity="1.0" fill="none"/><line x1="149.509" y1="926.268" x2="343.217" y2="405.849" stroke="#ff0000" stroke-width="0.5" fill-opacity="1.0" fill="none"/><line x1="343.217" y1="405.849" x2="492.465" y2="794.981" stroke="#ff0000" stroke-width="0.5" fill-opacity="1.0" fill="none"/><line x1="337.121" y1="164.092" x2="733.445" y2="143.500" stroke="#ff0000" stroke-width="0.5" fill-opacity="1.0" fill="none"/><line x1="523.014" y1="422.997" x2="492.465" y2="794.981" stroke="#ff0000" stroke-width="0.5" fill-opacity="1.0" fill="none"/><line x1="733.445" y1="143.500" x2="456.535" y2="390.762" stroke="#ff0000" stroke-width="0.5" fill-opacity="1.0" fill="none"/><line x1="43.654" y1="219.669" x2="343.217" y2="405.849" stroke="#ff0000" stroke-width="0.5" fill-opacity="1.0" fill="none"/><line x1="943.592" y1="152.687" x2="893.176" y2="499.170" stroke="#ff0000" stroke-width="0.5" fill-opacity="1.0" fill="none"/><line x1="893.176" y1="499.170" x2="626.851" y2="723.394" stroke="#ff0000" stroke-width="0.5" fill-opacity="1.0" fill="none"/><line x1="470.694" y1="869.810" x2="149.509" y2="926.268" stroke="#ff0000" stroke-width="0.5" fill-opacity="1.0" fill="none"/><line x1="626.851" y1="723.394" x2="523.014" y2="422.997" stroke="#ff0000" stroke-width="0.5" fill-opacity="1.0" fill="none"/><line x1="626.851" y1="723.394" x2="602.668" y2="410.392" stroke="#ff0000" stroke-width="0.5" fill-opacity="1.0" fill="none"/><line x1="733.445" y1="143.500" x2="886.110" y2="404.449" stroke="#ff0000" stroke-width="0.5" fill-opacity="1.0" fill="none"/><line x1="337.121" y1="164.092" x2="43.654" y2="219.669" stroke="#ff0000" stroke-width="0.5" fill-opacity="1.0" fill="none"/><line x1="626.851" y1="723.394" x2="878.782" y2="675.688" stroke="#ff0000" stroke-width="0.5" fill-opacity="1.0" fill="none"/><line x1="519.336" y1="845.347" x2="724.637" y2="970.126" stroke="#ff0000" stroke-width="0.5" fill-opacity="1.0" fill="none"/><line x1="20.289" y1="374.169" x2="0.337" y2="275.487" stroke="#ff0000" stroke-width="0.5" fill-opacity="1.0" fill="none"/><line x1="0.337" y1="275.487" x2="343.217" y2="405.849" stroke="#ff0000" stroke-width="0.5" fill-opacity="1.0" fill="none"/><line x1="519.336" y1="845.347" x2="470.694" y2="869.810" stroke="#ff0000" stroke-width="0.5" fill-opacity="1.0" fill="none"/><line x1="878.782" y1="675.688" x2="931.446" y2="846.768" stroke="#ff0000" stroke-width="0.5" fill-opacity="1.0" fill="none"/><line x1="456.535" y1="390.762" x2="602.668" y2="410.392" stroke="#ff0000" stroke-width="0.5" fill-opacity="1.0" fill="none"/><line x1="0.337" y1="275.487" x2="20.289" y2="374.169" stroke="#00ff00" stroke-width="3" stroke-opacity="0.5" fill="none"/><line x1="20.289" y1="374.169" x2="149.509" y2="926.268" stroke="#00ff00" stroke-width="3" stroke-opacity="0.5" fill="none"/><line x1="149.509" y1="926.268" x2="724.637" y2="970.126" stroke="#00ff00" stroke-width="3" stroke-opacity="0.5" fill="none"/><line x1="724.637" y1="970.126" x2="519.336" y2="845.347" stroke="#00ff00" stroke-width="3" stroke-opacity="0.5" fill="none"/><line x1="519.336" y1="845.347" x2="470.694" y2="869.810" stroke="#00ff00" stroke-width="3" stroke-opacity="0.5" fill="none"/><line x1="470.694" y1="869.810" x2="343.217" y2="405.849" stroke="#00ff00" stroke-width="3" stroke-opacity="0.5" fill="none"/><line x1="343.217" y1="405.849" x2="492.465" y2="794.981" stroke="#00ff00" stroke-width="3" stroke-opacity="0.5" fill="none"/><line x1="492.465" y1="794.981" x2="523.014" y2="422.997" stroke="#00ff00" stroke-width="3" stroke-opacity="0.5" fill="none"/><line x1="523.014" y1="422.997" x2="626.851" y2="723.394" stroke="#00ff00" stroke-width="3" stroke-opacity="0.5" fill="none"/><line x1="626.851" y1="723.394" x2="878.782" y2="675.688" stroke="#00ff00" stroke-width="3" stroke-opacity="0.5" fill="none"/><line x1="878.782" y1="675.688" x2="931.446" y2="846.768" stroke="#00ff00" stroke-width="3" stroke-opacity="0.5" fill="none"/><line x1="931.446" y1="846.768" x2="943.592" y2="152.687" stroke="#00ff00" stroke-width="3" stroke-opacity="0.5" fill="none"/><line x1="943.592" y1="152.687" x2="893.176" y2="499.170" stroke="#00ff00" stroke-width="3" stroke-opacity="0.5" fill="none"/><line x1="893.176" y1="499.170" x2="602.668" y2="410.392" stroke="#00ff00" stroke-width="3" stroke-opacity="0.5" fill="none"/><line x1="602.668" y1="410.392" x2="456.535" y2="390.762" stroke="#00ff00" stroke-width="3" stroke-opacity="0.5" fill="none"/><line x1="456.535" y1="390.762" x2="733.445" y2="143.500" stroke="#00ff00" stroke-width="3" stroke-opacity="0.5" fill="none"/><line x1="733.445" y1="143.500" x2="886.110" y2="404.449" stroke="#00ff00" stroke-width="3" stroke-opacity="0.5" fill="none"/><line x1="886.110" y1="404.449" x2="337.121" y2="164.092" stroke="#00ff00" stroke-width="3" stroke-opacity="0.5" fill="none"/><line x1="337.121" y1="164.092" x2="43.654" y2="219.669" stroke="#00ff00" stroke-width="3" stroke-opacity="0.5" fill="none"/><line x1="43.654" y1="219.669" x2="0.337" y2="275.487" stroke="#00ff00" stroke-width="3" stroke-opacity="0.5" fill="none"/><text x="10.000" y="10.0" fill="red"> _0_ </text><text x="40.000" y="10.0" fill="red"> _1_ </text><text x="70.000" y="10.0" fill="red"> _8_ </text><text x="100.000" y="10.0" fill="red"> _3_ </text><text x="130.000" y="10.0" fill="red"> _2_ </text><text x="160.000" y="10.0" fill="red"> _13_ </text><text x="190.000" y="10.0" fill="red"> _8_ </text><text x="220.000" y="10.0" fill="red"> _5_ </text><text x="250.000" y="10.0" fill="red"> _11_ </text><text x="280.000" y="10.0" fill="red"> _12_ </text><text x="310.000" y="10.0" fill="red"> _16_ </text><text x="340.000" y="10.0" fill="red"> _7_ </text><text x="370.000" y="10.0" fill="red"> _17_ </text><text x="400.000" y="10.0" fill="red"> _4_ </text><text x="430.000" y="10.0" fill="red"> _9_ </text><text x="460.000" y="10.0" fill="red"> _16_ </text><text x="490.000" y="10.0" fill="red"> _14_ </text><text x="520.000" y="10.0" fill="red"> _10_ </text><text x="550.000" y="10.0" fill="red"> _6_ </text><text x="580.000" y="10.0" fill="red"> _19_ </text></g>
</svg>
